<mxfile host="57912070-672c-4776-8ee6-6f355da51c11" modified="2020-08-03T03:53:53.677Z" agent="5.0 (Macintosh; Intel Mac OS X 10_14_6) AppleWebKit/537.36 (KHTML, like Gecko) Code/1.47.1 Chrome/78.0.3904.130 Electron/7.3.2 Safari/537.36" etag="F6IJVxm9u1HegGQkOU-L" version="13.1.3" pages="5">
    <diagram id="6hGFLwfOUW9BJ-s0fimq" name="A">
        <mxGraphModel dx="1931" dy="813" grid="1" gridSize="10" guides="1" tooltips="1" connect="1" arrows="1" fold="1" page="1" pageScale="1" pageWidth="827" pageHeight="1169" math="0" shadow="0">
            <root>
                <mxCell id="0"/>
                <mxCell id="1" parent="0"/>
                <mxCell id="3" value="" style="rounded=0;whiteSpace=wrap;html=1;fillColor=#60a917;strokeColor=#2D7600;fontColor=#ffffff;" parent="1" vertex="1">
                    <mxGeometry x="200" y="270" width="40" height="40" as="geometry"/>
                </mxCell>
                <mxCell id="4" value="" style="rounded=0;whiteSpace=wrap;html=1;fillColor=#60a917;strokeColor=#2D7600;fontColor=#ffffff;" parent="1" vertex="1">
                    <mxGeometry x="280" y="200" width="40" height="120" as="geometry"/>
                </mxCell>
                <mxCell id="5" value="" style="rounded=0;whiteSpace=wrap;html=1;fillColor=#60a917;strokeColor=#2D7600;fontColor=#ffffff;" parent="1" vertex="1">
                    <mxGeometry x="360" y="160" width="40" height="160" as="geometry"/>
                </mxCell>
                <mxCell id="6" value="" style="rounded=0;whiteSpace=wrap;html=1;fillColor=#60a917;strokeColor=#2D7600;fontColor=#ffffff;" parent="1" vertex="1">
                    <mxGeometry x="440" y="240" width="40" height="80" as="geometry"/>
                </mxCell>
                <mxCell id="14" value="n" style="text;html=1;align=center;verticalAlign=middle;resizable=0;points=[];autosize=1;" parent="1" vertex="1">
                    <mxGeometry x="250" y="110" width="20" height="20" as="geometry"/>
                </mxCell>
                <mxCell id="15" value="dp[n]&amp;nbsp;" style="text;html=1;align=center;verticalAlign=middle;resizable=0;points=[];autosize=1;" parent="1" vertex="1">
                    <mxGeometry x="435" y="337" width="50" height="20" as="geometry"/>
                </mxCell>
                <mxCell id="16" value="" style="shape=flexArrow;endArrow=classic;html=1;" parent="1" edge="1">
                    <mxGeometry width="50" height="50" relative="1" as="geometry">
                        <mxPoint x="400" y="270" as="sourcePoint"/>
                        <mxPoint x="460" y="270" as="targetPoint"/>
                        <Array as="points">
                            <mxPoint x="410" y="270"/>
                            <mxPoint x="430" y="270"/>
                            <mxPoint x="440" y="270"/>
                        </Array>
                    </mxGeometry>
                </mxCell>
                <mxCell id="18" value="" style="shape=flexArrow;endArrow=classic;html=1;width=8.4;endSize=7.776000000000001;entryX=0;entryY=0.75;entryDx=0;entryDy=0;" parent="1" edge="1">
                    <mxGeometry width="50" height="50" relative="1" as="geometry">
                        <mxPoint x="300" y="300" as="sourcePoint"/>
                        <mxPoint x="460" y="300" as="targetPoint"/>
                        <Array as="points">
                            <mxPoint x="485" y="300"/>
                        </Array>
                    </mxGeometry>
                </mxCell>
                <mxCell id="22" value="i=1" style="text;html=1;align=center;verticalAlign=middle;resizable=0;points=[];autosize=1;" parent="1" vertex="1">
                    <mxGeometry x="205" y="380" width="30" height="20" as="geometry"/>
                </mxCell>
                <mxCell id="23" value="i=2" style="text;html=1;align=center;verticalAlign=middle;resizable=0;points=[];autosize=1;" parent="1" vertex="1">
                    <mxGeometry x="285" y="380" width="30" height="20" as="geometry"/>
                </mxCell>
                <mxCell id="24" value="i=3" style="text;html=1;align=center;verticalAlign=middle;resizable=0;points=[];autosize=1;" parent="1" vertex="1">
                    <mxGeometry x="365" y="380" width="30" height="20" as="geometry"/>
                </mxCell>
                <mxCell id="L19XDo2tkWXeApFAZZlE-24" value="dp[1]" style="text;html=1;align=center;verticalAlign=middle;resizable=0;points=[];autosize=1;" parent="1" vertex="1">
                    <mxGeometry x="200" y="337" width="40" height="20" as="geometry"/>
                </mxCell>
                <mxCell id="L19XDo2tkWXeApFAZZlE-25" value="dp[i+1]" style="text;html=1;align=center;verticalAlign=middle;resizable=0;points=[];autosize=1;" parent="1" vertex="1">
                    <mxGeometry x="355" y="420" width="50" height="20" as="geometry"/>
                </mxCell>
                <mxCell id="L19XDo2tkWXeApFAZZlE-26" value="" style="shape=curlyBracket;whiteSpace=wrap;html=1;rounded=1;rotation=90;size=0;" parent="1" vertex="1">
                    <mxGeometry x="250" y="15" width="20" height="270" as="geometry"/>
                </mxCell>
                <mxCell id="L19XDo2tkWXeApFAZZlE-27" value="dp[n-1]" style="text;html=1;align=center;verticalAlign=middle;resizable=0;points=[];autosize=1;" parent="1" vertex="1">
                    <mxGeometry x="355" y="337" width="50" height="20" as="geometry"/>
                </mxCell>
                <mxCell id="lWq10--bJ0elrAMi2HDD-24" value="" style="shape=flexArrow;endArrow=classic;html=1;" parent="1" edge="1">
                    <mxGeometry width="50" height="50" relative="1" as="geometry">
                        <mxPoint x="395" y="285" as="sourcePoint"/>
                        <mxPoint x="455" y="285" as="targetPoint"/>
                        <Array as="points">
                            <mxPoint x="405" y="285"/>
                            <mxPoint x="425" y="285"/>
                            <mxPoint x="435" y="285"/>
                        </Array>
                    </mxGeometry>
                </mxCell>
            </root>
        </mxGraphModel>
    </diagram>
    <diagram id="nqxCYUe12KdmPInOwv0l" name="C">
        <mxGraphModel dx="1931" dy="813" grid="1" gridSize="10" guides="1" tooltips="1" connect="1" arrows="1" fold="1" page="1" pageScale="1" pageWidth="827" pageHeight="1169" math="0" shadow="0">
            <root>
                <mxCell id="FXPlpN_ZlGP3WkeCqtKG-0"/>
                <mxCell id="FXPlpN_ZlGP3WkeCqtKG-1" parent="FXPlpN_ZlGP3WkeCqtKG-0"/>
                <mxCell id="Mg_k5ZTgZvR51AgTinwW-0" value="" style="rounded=0;whiteSpace=wrap;html=1;fillColor=#60a917;strokeColor=#2D7600;fontColor=#ffffff;" parent="FXPlpN_ZlGP3WkeCqtKG-1" vertex="1">
                    <mxGeometry x="120" y="280" width="40" height="40" as="geometry"/>
                </mxCell>
                <mxCell id="Mg_k5ZTgZvR51AgTinwW-1" value="" style="rounded=0;whiteSpace=wrap;html=1;fillColor=#60a917;strokeColor=#2D7600;fontColor=#ffffff;" parent="FXPlpN_ZlGP3WkeCqtKG-1" vertex="1">
                    <mxGeometry x="200" y="280" width="40" height="40" as="geometry"/>
                </mxCell>
                <mxCell id="Mg_k5ZTgZvR51AgTinwW-2" value="" style="rounded=0;whiteSpace=wrap;html=1;fillColor=#60a917;strokeColor=#2D7600;fontColor=#ffffff;" parent="FXPlpN_ZlGP3WkeCqtKG-1" vertex="1">
                    <mxGeometry x="280" y="280" width="40" height="40" as="geometry"/>
                </mxCell>
                <mxCell id="Mg_k5ZTgZvR51AgTinwW-3" value="" style="rounded=0;whiteSpace=wrap;html=1;fillColor=#60a917;strokeColor=#2D7600;fontColor=#ffffff;" parent="FXPlpN_ZlGP3WkeCqtKG-1" vertex="1">
                    <mxGeometry x="360" y="280" width="40" height="40" as="geometry"/>
                </mxCell>
                <mxCell id="Mg_k5ZTgZvR51AgTinwW-4" value="" style="rounded=0;whiteSpace=wrap;html=1;fillColor=#60a917;strokeColor=#2D7600;fontColor=#ffffff;" parent="FXPlpN_ZlGP3WkeCqtKG-1" vertex="1">
                    <mxGeometry x="440" y="280" width="40" height="40" as="geometry"/>
                </mxCell>
                <mxCell id="Mg_k5ZTgZvR51AgTinwW-5" value="n" style="text;html=1;align=center;verticalAlign=middle;resizable=0;points=[];autosize=1;" parent="FXPlpN_ZlGP3WkeCqtKG-1" vertex="1">
                    <mxGeometry x="290" y="200" width="20" height="20" as="geometry"/>
                </mxCell>
                <mxCell id="Mg_k5ZTgZvR51AgTinwW-6" value="dp[0]" style="text;html=1;align=center;verticalAlign=middle;resizable=0;points=[];autosize=1;" parent="FXPlpN_ZlGP3WkeCqtKG-1" vertex="1">
                    <mxGeometry x="120" y="337" width="40" height="20" as="geometry"/>
                </mxCell>
                <mxCell id="Mg_k5ZTgZvR51AgTinwW-7" value="0" style="text;html=1;align=center;verticalAlign=middle;resizable=0;points=[];autosize=1;" parent="FXPlpN_ZlGP3WkeCqtKG-1" vertex="1">
                    <mxGeometry x="130" y="250" width="20" height="20" as="geometry"/>
                </mxCell>
                <mxCell id="Mg_k5ZTgZvR51AgTinwW-8" value="i=0" style="text;html=1;align=center;verticalAlign=middle;resizable=0;points=[];autosize=1;" parent="FXPlpN_ZlGP3WkeCqtKG-1" vertex="1">
                    <mxGeometry x="125" y="380" width="30" height="20" as="geometry"/>
                </mxCell>
                <mxCell id="Mg_k5ZTgZvR51AgTinwW-9" value="i=1" style="text;html=1;align=center;verticalAlign=middle;resizable=0;points=[];autosize=1;" parent="FXPlpN_ZlGP3WkeCqtKG-1" vertex="1">
                    <mxGeometry x="205" y="380" width="30" height="20" as="geometry"/>
                </mxCell>
                <mxCell id="Mg_k5ZTgZvR51AgTinwW-10" value="i=2" style="text;html=1;align=center;verticalAlign=middle;resizable=0;points=[];autosize=1;" parent="FXPlpN_ZlGP3WkeCqtKG-1" vertex="1">
                    <mxGeometry x="285" y="380" width="30" height="20" as="geometry"/>
                </mxCell>
                <mxCell id="Mg_k5ZTgZvR51AgTinwW-11" value="i=3" style="text;html=1;align=center;verticalAlign=middle;resizable=0;points=[];autosize=1;" parent="FXPlpN_ZlGP3WkeCqtKG-1" vertex="1">
                    <mxGeometry x="365" y="380" width="30" height="20" as="geometry"/>
                </mxCell>
                <mxCell id="Mg_k5ZTgZvR51AgTinwW-12" value="i=n-1" style="text;html=1;align=center;verticalAlign=middle;resizable=0;points=[];autosize=1;" parent="FXPlpN_ZlGP3WkeCqtKG-1" vertex="1">
                    <mxGeometry x="440" y="380" width="40" height="20" as="geometry"/>
                </mxCell>
                <mxCell id="Mg_k5ZTgZvR51AgTinwW-13" value="n-1" style="text;html=1;align=center;verticalAlign=middle;resizable=0;points=[];autosize=1;" parent="FXPlpN_ZlGP3WkeCqtKG-1" vertex="1">
                    <mxGeometry x="445" y="250" width="30" height="20" as="geometry"/>
                </mxCell>
                <mxCell id="Mg_k5ZTgZvR51AgTinwW-14" value="dp[n-1]" style="text;html=1;align=center;verticalAlign=middle;resizable=0;points=[];autosize=1;" parent="FXPlpN_ZlGP3WkeCqtKG-1" vertex="1">
                    <mxGeometry x="435" y="337" width="50" height="20" as="geometry"/>
                </mxCell>
                <mxCell id="Mg_k5ZTgZvR51AgTinwW-15" value="" style="shape=curlyBracket;whiteSpace=wrap;html=1;rounded=1;rotation=90;" parent="FXPlpN_ZlGP3WkeCqtKG-1" vertex="1">
                    <mxGeometry x="290" y="70" width="20" height="340" as="geometry"/>
                </mxCell>
            </root>
        </mxGraphModel>
    </diagram>
    <diagram id="9LSsSe9rEOqqytmhJlft" name="ページ3">
        <mxGraphModel dx="1931" dy="813" grid="1" gridSize="10" guides="1" tooltips="1" connect="1" arrows="1" fold="1" page="1" pageScale="1" pageWidth="827" pageHeight="1169" math="0" shadow="0">
            <root>
                <mxCell id="W33IqiNE3Emsih-60jMd-0"/>
                <mxCell id="W33IqiNE3Emsih-60jMd-1" parent="W33IqiNE3Emsih-60jMd-0"/>
                <mxCell id="W33IqiNE3Emsih-60jMd-2" value="" style="rounded=0;whiteSpace=wrap;html=1;fillColor=#60a917;strokeColor=#2D7600;fontColor=#ffffff;" parent="W33IqiNE3Emsih-60jMd-1" vertex="1">
                    <mxGeometry x="120" y="280" width="40" height="40" as="geometry"/>
                </mxCell>
                <mxCell id="W33IqiNE3Emsih-60jMd-3" value="" style="rounded=0;whiteSpace=wrap;html=1;fillColor=#60a917;strokeColor=#2D7600;fontColor=#ffffff;" parent="W33IqiNE3Emsih-60jMd-1" vertex="1">
                    <mxGeometry x="200" y="280" width="40" height="40" as="geometry"/>
                </mxCell>
                <mxCell id="W33IqiNE3Emsih-60jMd-4" value="" style="rounded=0;whiteSpace=wrap;html=1;fillColor=#60a917;strokeColor=#2D7600;fontColor=#ffffff;" parent="W33IqiNE3Emsih-60jMd-1" vertex="1">
                    <mxGeometry x="280" y="280" width="40" height="40" as="geometry"/>
                </mxCell>
                <mxCell id="W33IqiNE3Emsih-60jMd-5" value="" style="rounded=0;whiteSpace=wrap;html=1;fillColor=#60a917;strokeColor=#2D7600;fontColor=#ffffff;" parent="W33IqiNE3Emsih-60jMd-1" vertex="1">
                    <mxGeometry x="360" y="280" width="40" height="40" as="geometry"/>
                </mxCell>
                <mxCell id="W33IqiNE3Emsih-60jMd-6" value="" style="rounded=0;whiteSpace=wrap;html=1;fillColor=#60a917;strokeColor=#2D7600;fontColor=#ffffff;" parent="W33IqiNE3Emsih-60jMd-1" vertex="1">
                    <mxGeometry x="440" y="280" width="40" height="40" as="geometry"/>
                </mxCell>
                <mxCell id="W33IqiNE3Emsih-60jMd-7" value="n" style="text;html=1;align=center;verticalAlign=middle;resizable=0;points=[];autosize=1;" parent="W33IqiNE3Emsih-60jMd-1" vertex="1">
                    <mxGeometry x="290" y="200" width="20" height="20" as="geometry"/>
                </mxCell>
                <mxCell id="W33IqiNE3Emsih-60jMd-8" value="dp[0]" style="text;html=1;align=center;verticalAlign=middle;resizable=0;points=[];autosize=1;" parent="W33IqiNE3Emsih-60jMd-1" vertex="1">
                    <mxGeometry x="120" y="337" width="40" height="20" as="geometry"/>
                </mxCell>
                <mxCell id="W33IqiNE3Emsih-60jMd-9" value="0" style="text;html=1;align=center;verticalAlign=middle;resizable=0;points=[];autosize=1;" parent="W33IqiNE3Emsih-60jMd-1" vertex="1">
                    <mxGeometry x="130" y="250" width="20" height="20" as="geometry"/>
                </mxCell>
                <mxCell id="W33IqiNE3Emsih-60jMd-10" value="i=0" style="text;html=1;align=center;verticalAlign=middle;resizable=0;points=[];autosize=1;" parent="W33IqiNE3Emsih-60jMd-1" vertex="1">
                    <mxGeometry x="125" y="380" width="30" height="20" as="geometry"/>
                </mxCell>
                <mxCell id="W33IqiNE3Emsih-60jMd-11" value="i=1" style="text;html=1;align=center;verticalAlign=middle;resizable=0;points=[];autosize=1;" parent="W33IqiNE3Emsih-60jMd-1" vertex="1">
                    <mxGeometry x="205" y="380" width="30" height="20" as="geometry"/>
                </mxCell>
                <mxCell id="W33IqiNE3Emsih-60jMd-12" value="i=2" style="text;html=1;align=center;verticalAlign=middle;resizable=0;points=[];autosize=1;" parent="W33IqiNE3Emsih-60jMd-1" vertex="1">
                    <mxGeometry x="285" y="380" width="30" height="20" as="geometry"/>
                </mxCell>
                <mxCell id="W33IqiNE3Emsih-60jMd-13" value="i=3" style="text;html=1;align=center;verticalAlign=middle;resizable=0;points=[];autosize=1;" parent="W33IqiNE3Emsih-60jMd-1" vertex="1">
                    <mxGeometry x="365" y="380" width="30" height="20" as="geometry"/>
                </mxCell>
                <mxCell id="W33IqiNE3Emsih-60jMd-14" value="i=n-1" style="text;html=1;align=center;verticalAlign=middle;resizable=0;points=[];autosize=1;" parent="W33IqiNE3Emsih-60jMd-1" vertex="1">
                    <mxGeometry x="440" y="380" width="40" height="20" as="geometry"/>
                </mxCell>
                <mxCell id="W33IqiNE3Emsih-60jMd-15" value="n-1" style="text;html=1;align=center;verticalAlign=middle;resizable=0;points=[];autosize=1;" parent="W33IqiNE3Emsih-60jMd-1" vertex="1">
                    <mxGeometry x="445" y="250" width="30" height="20" as="geometry"/>
                </mxCell>
                <mxCell id="W33IqiNE3Emsih-60jMd-16" value="dp[n-1]" style="text;html=1;align=center;verticalAlign=middle;resizable=0;points=[];autosize=1;" parent="W33IqiNE3Emsih-60jMd-1" vertex="1">
                    <mxGeometry x="435" y="337" width="50" height="20" as="geometry"/>
                </mxCell>
                <mxCell id="W33IqiNE3Emsih-60jMd-17" value="" style="shape=curlyBracket;whiteSpace=wrap;html=1;rounded=1;rotation=90;" parent="W33IqiNE3Emsih-60jMd-1" vertex="1">
                    <mxGeometry x="290" y="70" width="20" height="340" as="geometry"/>
                </mxCell>
            </root>
        </mxGraphModel>
    </diagram>
    <diagram id="25iIq2v1gwyMDsgIdMl5" name="D">
        <mxGraphModel dx="1931" dy="813" grid="1" gridSize="10" guides="1" tooltips="1" connect="1" arrows="1" fold="1" page="1" pageScale="1" pageWidth="827" pageHeight="1169" math="0" shadow="0">
            <root>
                <mxCell id="0-jxKKgBBR26Vg0q4hbO-0"/>
                <mxCell id="0-jxKKgBBR26Vg0q4hbO-1" parent="0-jxKKgBBR26Vg0q4hbO-0"/>
                <mxCell id="MjgiGOj3QjEhLfsm3sum-1" value="" style="rounded=0;whiteSpace=wrap;html=1;fillColor=#60a917;strokeColor=#2D7600;fontColor=#ffffff;" parent="0-jxKKgBBR26Vg0q4hbO-1" vertex="1">
                    <mxGeometry x="210" y="280" width="30" height="40" as="geometry"/>
                </mxCell>
                <mxCell id="MjgiGOj3QjEhLfsm3sum-2" value="" style="rounded=0;whiteSpace=wrap;html=1;fillColor=#60a917;strokeColor=#2D7600;fontColor=#ffffff;" parent="0-jxKKgBBR26Vg0q4hbO-1" vertex="1">
                    <mxGeometry x="290" y="280" width="30" height="40" as="geometry"/>
                </mxCell>
                <mxCell id="MjgiGOj3QjEhLfsm3sum-3" value="" style="rounded=0;whiteSpace=wrap;html=1;fillColor=#60a917;strokeColor=#2D7600;fontColor=#ffffff;" parent="0-jxKKgBBR26Vg0q4hbO-1" vertex="1">
                    <mxGeometry x="370" y="280" width="30" height="40" as="geometry"/>
                </mxCell>
                <mxCell id="MjgiGOj3QjEhLfsm3sum-4" value="" style="rounded=0;whiteSpace=wrap;html=1;fillColor=#60a917;strokeColor=#2D7600;fontColor=#ffffff;" parent="0-jxKKgBBR26Vg0q4hbO-1" vertex="1">
                    <mxGeometry x="450" y="280" width="30" height="40" as="geometry"/>
                </mxCell>
                <mxCell id="MjgiGOj3QjEhLfsm3sum-5" value="w" style="text;html=1;align=center;verticalAlign=middle;resizable=0;points=[];autosize=1;" parent="0-jxKKgBBR26Vg0q4hbO-1" vertex="1">
                    <mxGeometry x="325" y="190" width="20" height="20" as="geometry"/>
                </mxCell>
                <mxCell id="MjgiGOj3QjEhLfsm3sum-6" value="dp[0]" style="text;html=1;align=center;verticalAlign=middle;resizable=0;points=[];autosize=1;" parent="0-jxKKgBBR26Vg0q4hbO-1" vertex="1">
                    <mxGeometry x="120" y="337" width="40" height="20" as="geometry"/>
                </mxCell>
                <mxCell id="MjgiGOj3QjEhLfsm3sum-7" value="0" style="text;html=1;align=center;verticalAlign=middle;resizable=0;points=[];autosize=1;" parent="0-jxKKgBBR26Vg0q4hbO-1" vertex="1">
                    <mxGeometry x="130" y="250" width="20" height="20" as="geometry"/>
                </mxCell>
                <mxCell id="MjgiGOj3QjEhLfsm3sum-8" value="i=0" style="text;html=1;align=center;verticalAlign=middle;resizable=0;points=[];autosize=1;" parent="0-jxKKgBBR26Vg0q4hbO-1" vertex="1">
                    <mxGeometry x="125" y="380" width="30" height="20" as="geometry"/>
                </mxCell>
                <mxCell id="MjgiGOj3QjEhLfsm3sum-9" value="i=1" style="text;html=1;align=center;verticalAlign=middle;resizable=0;points=[];autosize=1;" parent="0-jxKKgBBR26Vg0q4hbO-1" vertex="1">
                    <mxGeometry x="205" y="380" width="30" height="20" as="geometry"/>
                </mxCell>
                <mxCell id="MjgiGOj3QjEhLfsm3sum-10" value="i=2" style="text;html=1;align=center;verticalAlign=middle;resizable=0;points=[];autosize=1;" parent="0-jxKKgBBR26Vg0q4hbO-1" vertex="1">
                    <mxGeometry x="285" y="380" width="30" height="20" as="geometry"/>
                </mxCell>
                <mxCell id="MjgiGOj3QjEhLfsm3sum-11" value="i=n-1" style="text;html=1;align=center;verticalAlign=middle;resizable=0;points=[];autosize=1;" parent="0-jxKKgBBR26Vg0q4hbO-1" vertex="1">
                    <mxGeometry x="360" y="380" width="40" height="20" as="geometry"/>
                </mxCell>
                <mxCell id="MjgiGOj3QjEhLfsm3sum-12" value="w" style="text;html=1;align=center;verticalAlign=middle;resizable=0;points=[];autosize=1;" parent="0-jxKKgBBR26Vg0q4hbO-1" vertex="1">
                    <mxGeometry x="450" y="250" width="20" height="20" as="geometry"/>
                </mxCell>
                <mxCell id="MjgiGOj3QjEhLfsm3sum-13" value="dp[w]" style="text;html=1;align=center;verticalAlign=middle;resizable=0;points=[];autosize=1;" parent="0-jxKKgBBR26Vg0q4hbO-1" vertex="1">
                    <mxGeometry x="440" y="337" width="40" height="20" as="geometry"/>
                </mxCell>
                <mxCell id="MjgiGOj3QjEhLfsm3sum-14" value="" style="shape=curlyBracket;whiteSpace=wrap;html=1;rounded=1;rotation=90;" parent="0-jxKKgBBR26Vg0q4hbO-1" vertex="1">
                    <mxGeometry x="325" y="105" width="20" height="270" as="geometry"/>
                </mxCell>
                <mxCell id="MjgiGOj3QjEhLfsm3sum-15" value="dp[1]" style="text;html=1;align=center;verticalAlign=middle;resizable=0;points=[];autosize=1;" parent="0-jxKKgBBR26Vg0q4hbO-1" vertex="1">
                    <mxGeometry x="205" y="337" width="40" height="20" as="geometry"/>
                </mxCell>
                <mxCell id="MjgiGOj3QjEhLfsm3sum-16" value="1" style="text;html=1;align=center;verticalAlign=middle;resizable=0;points=[];autosize=1;" parent="0-jxKKgBBR26Vg0q4hbO-1" vertex="1">
                    <mxGeometry x="210" y="250" width="20" height="20" as="geometry"/>
                </mxCell>
                <mxCell id="MjgiGOj3QjEhLfsm3sum-17" value="dp[i+1]" style="text;html=1;align=center;verticalAlign=middle;resizable=0;points=[];autosize=1;" parent="0-jxKKgBBR26Vg0q4hbO-1" vertex="1">
                    <mxGeometry x="115" y="430" width="50" height="20" as="geometry"/>
                </mxCell>
                <mxCell id="MjgiGOj3QjEhLfsm3sum-18" value="dp[i+1]" style="text;html=1;align=center;verticalAlign=middle;resizable=0;points=[];autosize=1;" parent="0-jxKKgBBR26Vg0q4hbO-1" vertex="1">
                    <mxGeometry x="195" y="430" width="50" height="20" as="geometry"/>
                </mxCell>
                <mxCell id="MjgiGOj3QjEhLfsm3sum-19" value="dp[i+1]" style="text;html=1;align=center;verticalAlign=middle;resizable=0;points=[];autosize=1;" parent="0-jxKKgBBR26Vg0q4hbO-1" vertex="1">
                    <mxGeometry x="275" y="430" width="50" height="20" as="geometry"/>
                </mxCell>
                <mxCell id="MjgiGOj3QjEhLfsm3sum-20" value="dp[i+1]" style="text;html=1;align=center;verticalAlign=middle;resizable=0;points=[];autosize=1;" parent="0-jxKKgBBR26Vg0q4hbO-1" vertex="1">
                    <mxGeometry x="355" y="430" width="50" height="20" as="geometry"/>
                </mxCell>
                <mxCell id="MjgiGOj3QjEhLfsm3sum-21" value="i &amp;lt; n" style="text;html=1;align=center;verticalAlign=middle;resizable=0;points=[];autosize=1;" parent="0-jxKKgBBR26Vg0q4hbO-1" vertex="1">
                    <mxGeometry x="360" y="480" width="40" height="20" as="geometry"/>
                </mxCell>
                <mxCell id="MjgiGOj3QjEhLfsm3sum-22" value="DP" style="text;html=1;align=center;verticalAlign=middle;resizable=0;points=[];autosize=1;" parent="0-jxKKgBBR26Vg0q4hbO-1" vertex="1">
                    <mxGeometry x="50" y="337" width="30" height="20" as="geometry"/>
                </mxCell>
                <mxCell id="MjgiGOj3QjEhLfsm3sum-23" value="添字" style="text;html=1;align=center;verticalAlign=middle;resizable=0;points=[];autosize=1;" parent="0-jxKKgBBR26Vg0q4hbO-1" vertex="1">
                    <mxGeometry x="50" y="380" width="40" height="20" as="geometry"/>
                </mxCell>
                <mxCell id="MjgiGOj3QjEhLfsm3sum-24" value="漸化式" style="text;html=1;align=center;verticalAlign=middle;resizable=0;points=[];autosize=1;" parent="0-jxKKgBBR26Vg0q4hbO-1" vertex="1">
                    <mxGeometry x="45" y="430" width="50" height="20" as="geometry"/>
                </mxCell>
                <mxCell id="MjgiGOj3QjEhLfsm3sum-25" value="" style="shape=curlyBracket;whiteSpace=wrap;html=1;rounded=1;rotation=90;" parent="0-jxKKgBBR26Vg0q4hbO-1" vertex="1">
                    <mxGeometry x="252.5" y="27.5" width="20" height="275" as="geometry"/>
                </mxCell>
                <mxCell id="MjgiGOj3QjEhLfsm3sum-26" value="loop : w.times" style="text;html=1;align=center;verticalAlign=middle;resizable=0;points=[];autosize=1;" parent="0-jxKKgBBR26Vg0q4hbO-1" vertex="1">
                    <mxGeometry x="216" y="120" width="90" height="20" as="geometry"/>
                </mxCell>
                <mxCell id="MjgiGOj3QjEhLfsm3sum-27" value="w-1" style="text;html=1;align=center;verticalAlign=middle;resizable=0;points=[];autosize=1;" parent="0-jxKKgBBR26Vg0q4hbO-1" vertex="1">
                    <mxGeometry x="365" y="250" width="30" height="20" as="geometry"/>
                </mxCell>
                <mxCell id="-g8sU3lfitqEsPtSd0D8-1" value="" style="rounded=0;whiteSpace=wrap;html=1;fillColor=#60a917;strokeColor=#2D7600;fontColor=#ffffff;" parent="0-jxKKgBBR26Vg0q4hbO-1" vertex="1">
                    <mxGeometry x="170" y="280" width="30" height="40" as="geometry"/>
                </mxCell>
                <mxCell id="-g8sU3lfitqEsPtSd0D8-2" value="" style="rounded=0;whiteSpace=wrap;html=1;fillColor=#60a917;strokeColor=#2D7600;fontColor=#ffffff;" parent="0-jxKKgBBR26Vg0q4hbO-1" vertex="1">
                    <mxGeometry x="250" y="280" width="30" height="40" as="geometry"/>
                </mxCell>
                <mxCell id="-g8sU3lfitqEsPtSd0D8-3" value="" style="rounded=0;whiteSpace=wrap;html=1;fillColor=#60a917;strokeColor=#2D7600;fontColor=#ffffff;" parent="0-jxKKgBBR26Vg0q4hbO-1" vertex="1">
                    <mxGeometry x="330" y="280" width="30" height="40" as="geometry"/>
                </mxCell>
                <mxCell id="-g8sU3lfitqEsPtSd0D8-4" value="" style="rounded=0;whiteSpace=wrap;html=1;fillColor=#60a917;strokeColor=#2D7600;fontColor=#ffffff;" parent="0-jxKKgBBR26Vg0q4hbO-1" vertex="1">
                    <mxGeometry x="410" y="280" width="30" height="40" as="geometry"/>
                </mxCell>
                <mxCell id="-g8sU3lfitqEsPtSd0D8-5" value="" style="html=1;shadow=0;dashed=0;align=center;verticalAlign=middle;shape=mxgraph.arrows2.arrow;dy=0.71;dx=22.49;notch=0;" parent="0-jxKKgBBR26Vg0q4hbO-1" vertex="1">
                    <mxGeometry x="230" y="280" width="85" height="30" as="geometry"/>
                </mxCell>
                <mxCell id="-g8sU3lfitqEsPtSd0D8-6" value="" style="html=1;shadow=0;dashed=0;align=center;verticalAlign=middle;shape=mxgraph.arrows2.arrow;dy=0.71;dx=22.49;notch=0;" parent="0-jxKKgBBR26Vg0q4hbO-1" vertex="1">
                    <mxGeometry x="275" y="290" width="85" height="30" as="geometry"/>
                </mxCell>
                <mxCell id="-g8sU3lfitqEsPtSd0D8-7" value="" style="html=1;shadow=0;dashed=0;align=center;verticalAlign=middle;shape=mxgraph.arrows2.arrow;dy=0.71;dx=22.49;notch=0;" parent="0-jxKKgBBR26Vg0q4hbO-1" vertex="1">
                    <mxGeometry x="320" y="300" width="80" height="32.5" as="geometry"/>
                </mxCell>
                <mxCell id="-g8sU3lfitqEsPtSd0D8-8" value="" style="html=1;shadow=0;dashed=0;align=center;verticalAlign=middle;shape=mxgraph.arrows2.arrow;dy=0.71;dx=22.49;notch=0;" parent="0-jxKKgBBR26Vg0q4hbO-1" vertex="1">
                    <mxGeometry x="355" y="320" width="85" height="30" as="geometry"/>
                </mxCell>
                <mxCell id="-g8sU3lfitqEsPtSd0D8-9" value="" style="html=1;shadow=0;dashed=0;align=center;verticalAlign=middle;shape=mxgraph.arrows2.arrow;dy=0.71;dx=22.49;notch=0;" parent="0-jxKKgBBR26Vg0q4hbO-1" vertex="1">
                    <mxGeometry x="395" y="337" width="85" height="30" as="geometry"/>
                </mxCell>
            </root>
        </mxGraphModel>
    </diagram>
    <diagram name="E" id="bWcEdK5hLoM5gau5kC9a">
        <mxGraphModel dx="1931" dy="813" grid="1" gridSize="10" guides="1" tooltips="1" connect="1" arrows="1" fold="1" page="1" pageScale="1" pageWidth="827" pageHeight="1169" math="0" shadow="0">
            <root>
                <mxCell id="uCrCB7scnEf3Y2s6lKGP-0"/>
                <mxCell id="uCrCB7scnEf3Y2s6lKGP-1" parent="uCrCB7scnEf3Y2s6lKGP-0"/>
                <mxCell id="uCrCB7scnEf3Y2s6lKGP-2" value="" style="rounded=0;whiteSpace=wrap;html=1;fillColor=#60a917;strokeColor=#2D7600;fontColor=#ffffff;" parent="uCrCB7scnEf3Y2s6lKGP-1" vertex="1">
                    <mxGeometry x="210" y="280" width="30" height="40" as="geometry"/>
                </mxCell>
                <mxCell id="uCrCB7scnEf3Y2s6lKGP-3" value="" style="rounded=0;whiteSpace=wrap;html=1;fillColor=#60a917;strokeColor=#2D7600;fontColor=#ffffff;" parent="uCrCB7scnEf3Y2s6lKGP-1" vertex="1">
                    <mxGeometry x="290" y="280" width="30" height="40" as="geometry"/>
                </mxCell>
                <mxCell id="uCrCB7scnEf3Y2s6lKGP-4" value="" style="rounded=0;whiteSpace=wrap;html=1;fillColor=#60a917;strokeColor=#2D7600;fontColor=#ffffff;" parent="uCrCB7scnEf3Y2s6lKGP-1" vertex="1">
                    <mxGeometry x="370" y="280" width="30" height="40" as="geometry"/>
                </mxCell>
                <mxCell id="uCrCB7scnEf3Y2s6lKGP-5" value="" style="rounded=0;whiteSpace=wrap;html=1;fillColor=#60a917;strokeColor=#2D7600;fontColor=#ffffff;" parent="uCrCB7scnEf3Y2s6lKGP-1" vertex="1">
                    <mxGeometry x="450" y="280" width="30" height="40" as="geometry"/>
                </mxCell>
                <mxCell id="uCrCB7scnEf3Y2s6lKGP-6" value="v" style="text;html=1;align=center;verticalAlign=middle;resizable=0;points=[];autosize=1;" parent="uCrCB7scnEf3Y2s6lKGP-1" vertex="1">
                    <mxGeometry x="325" y="190" width="20" height="20" as="geometry"/>
                </mxCell>
                <mxCell id="uCrCB7scnEf3Y2s6lKGP-7" value="dp[0]" style="text;html=1;align=center;verticalAlign=middle;resizable=0;points=[];autosize=1;" parent="uCrCB7scnEf3Y2s6lKGP-1" vertex="1">
                    <mxGeometry x="120" y="337" width="40" height="20" as="geometry"/>
                </mxCell>
                <mxCell id="uCrCB7scnEf3Y2s6lKGP-8" value="0" style="text;html=1;align=center;verticalAlign=middle;resizable=0;points=[];autosize=1;" parent="uCrCB7scnEf3Y2s6lKGP-1" vertex="1">
                    <mxGeometry x="130" y="250" width="20" height="20" as="geometry"/>
                </mxCell>
                <mxCell id="uCrCB7scnEf3Y2s6lKGP-9" value="i=0" style="text;html=1;align=center;verticalAlign=middle;resizable=0;points=[];autosize=1;" parent="uCrCB7scnEf3Y2s6lKGP-1" vertex="1">
                    <mxGeometry x="125" y="380" width="30" height="20" as="geometry"/>
                </mxCell>
                <mxCell id="uCrCB7scnEf3Y2s6lKGP-10" value="i=1" style="text;html=1;align=center;verticalAlign=middle;resizable=0;points=[];autosize=1;" parent="uCrCB7scnEf3Y2s6lKGP-1" vertex="1">
                    <mxGeometry x="205" y="380" width="30" height="20" as="geometry"/>
                </mxCell>
                <mxCell id="uCrCB7scnEf3Y2s6lKGP-11" value="i=2" style="text;html=1;align=center;verticalAlign=middle;resizable=0;points=[];autosize=1;" parent="uCrCB7scnEf3Y2s6lKGP-1" vertex="1">
                    <mxGeometry x="285" y="380" width="30" height="20" as="geometry"/>
                </mxCell>
                <mxCell id="uCrCB7scnEf3Y2s6lKGP-12" value="i=n-1" style="text;html=1;align=center;verticalAlign=middle;resizable=0;points=[];autosize=1;" parent="uCrCB7scnEf3Y2s6lKGP-1" vertex="1">
                    <mxGeometry x="360" y="380" width="40" height="20" as="geometry"/>
                </mxCell>
                <mxCell id="uCrCB7scnEf3Y2s6lKGP-13" value="33" style="text;html=1;align=center;verticalAlign=middle;resizable=0;points=[];autosize=1;" parent="uCrCB7scnEf3Y2s6lKGP-1" vertex="1">
                    <mxGeometry x="445" y="250" width="30" height="20" as="geometry"/>
                </mxCell>
                <mxCell id="uCrCB7scnEf3Y2s6lKGP-14" value="dp[w]" style="text;html=1;align=center;verticalAlign=middle;resizable=0;points=[];autosize=1;" parent="uCrCB7scnEf3Y2s6lKGP-1" vertex="1">
                    <mxGeometry x="440" y="337" width="40" height="20" as="geometry"/>
                </mxCell>
                <mxCell id="uCrCB7scnEf3Y2s6lKGP-15" value="" style="shape=curlyBracket;whiteSpace=wrap;html=1;rounded=1;rotation=90;" parent="uCrCB7scnEf3Y2s6lKGP-1" vertex="1">
                    <mxGeometry x="325" y="105" width="20" height="270" as="geometry"/>
                </mxCell>
                <mxCell id="uCrCB7scnEf3Y2s6lKGP-16" value="dp[1]" style="text;html=1;align=center;verticalAlign=middle;resizable=0;points=[];autosize=1;" parent="uCrCB7scnEf3Y2s6lKGP-1" vertex="1">
                    <mxGeometry x="205" y="337" width="40" height="20" as="geometry"/>
                </mxCell>
                <mxCell id="uCrCB7scnEf3Y2s6lKGP-17" value="1" style="text;html=1;align=center;verticalAlign=middle;resizable=0;points=[];autosize=1;" parent="uCrCB7scnEf3Y2s6lKGP-1" vertex="1">
                    <mxGeometry x="210" y="250" width="20" height="20" as="geometry"/>
                </mxCell>
                <mxCell id="uCrCB7scnEf3Y2s6lKGP-18" value="dp[i+1]" style="text;html=1;align=center;verticalAlign=middle;resizable=0;points=[];autosize=1;" parent="uCrCB7scnEf3Y2s6lKGP-1" vertex="1">
                    <mxGeometry x="115" y="430" width="50" height="20" as="geometry"/>
                </mxCell>
                <mxCell id="uCrCB7scnEf3Y2s6lKGP-19" value="dp[i+1]" style="text;html=1;align=center;verticalAlign=middle;resizable=0;points=[];autosize=1;" parent="uCrCB7scnEf3Y2s6lKGP-1" vertex="1">
                    <mxGeometry x="195" y="430" width="50" height="20" as="geometry"/>
                </mxCell>
                <mxCell id="uCrCB7scnEf3Y2s6lKGP-20" value="dp[i+1]" style="text;html=1;align=center;verticalAlign=middle;resizable=0;points=[];autosize=1;" parent="uCrCB7scnEf3Y2s6lKGP-1" vertex="1">
                    <mxGeometry x="275" y="430" width="50" height="20" as="geometry"/>
                </mxCell>
                <mxCell id="uCrCB7scnEf3Y2s6lKGP-21" value="dp[i+1]" style="text;html=1;align=center;verticalAlign=middle;resizable=0;points=[];autosize=1;" parent="uCrCB7scnEf3Y2s6lKGP-1" vertex="1">
                    <mxGeometry x="355" y="430" width="50" height="20" as="geometry"/>
                </mxCell>
                <mxCell id="uCrCB7scnEf3Y2s6lKGP-22" value="i &amp;lt; n" style="text;html=1;align=center;verticalAlign=middle;resizable=0;points=[];autosize=1;" parent="uCrCB7scnEf3Y2s6lKGP-1" vertex="1">
                    <mxGeometry x="360" y="480" width="40" height="20" as="geometry"/>
                </mxCell>
                <mxCell id="uCrCB7scnEf3Y2s6lKGP-23" value="DP" style="text;html=1;align=center;verticalAlign=middle;resizable=0;points=[];autosize=1;" parent="uCrCB7scnEf3Y2s6lKGP-1" vertex="1">
                    <mxGeometry x="50" y="337" width="30" height="20" as="geometry"/>
                </mxCell>
                <mxCell id="uCrCB7scnEf3Y2s6lKGP-24" value="添字" style="text;html=1;align=center;verticalAlign=middle;resizable=0;points=[];autosize=1;" parent="uCrCB7scnEf3Y2s6lKGP-1" vertex="1">
                    <mxGeometry x="50" y="380" width="40" height="20" as="geometry"/>
                </mxCell>
                <mxCell id="uCrCB7scnEf3Y2s6lKGP-25" value="漸化式" style="text;html=1;align=center;verticalAlign=middle;resizable=0;points=[];autosize=1;" parent="uCrCB7scnEf3Y2s6lKGP-1" vertex="1">
                    <mxGeometry x="45" y="430" width="50" height="20" as="geometry"/>
                </mxCell>
                <mxCell id="uCrCB7scnEf3Y2s6lKGP-27" value="loop : v.downto(lv)" style="text;html=1;align=center;verticalAlign=middle;resizable=0;points=[];autosize=1;" parent="uCrCB7scnEf3Y2s6lKGP-1" vertex="1">
                    <mxGeometry x="382.5" y="120" width="110" height="20" as="geometry"/>
                </mxCell>
                <mxCell id="uCrCB7scnEf3Y2s6lKGP-29" value="" style="rounded=0;whiteSpace=wrap;html=1;fillColor=#60a917;strokeColor=#2D7600;fontColor=#ffffff;" parent="uCrCB7scnEf3Y2s6lKGP-1" vertex="1">
                    <mxGeometry x="170" y="280" width="30" height="40" as="geometry"/>
                </mxCell>
                <mxCell id="uCrCB7scnEf3Y2s6lKGP-30" value="" style="rounded=0;whiteSpace=wrap;html=1;fillColor=#60a917;strokeColor=#2D7600;fontColor=#ffffff;" parent="uCrCB7scnEf3Y2s6lKGP-1" vertex="1">
                    <mxGeometry x="250" y="280" width="30" height="40" as="geometry"/>
                </mxCell>
                <mxCell id="uCrCB7scnEf3Y2s6lKGP-31" value="" style="rounded=0;whiteSpace=wrap;html=1;fillColor=#60a917;strokeColor=#2D7600;fontColor=#ffffff;" parent="uCrCB7scnEf3Y2s6lKGP-1" vertex="1">
                    <mxGeometry x="330" y="280" width="30" height="40" as="geometry"/>
                </mxCell>
                <mxCell id="uCrCB7scnEf3Y2s6lKGP-32" value="" style="rounded=0;whiteSpace=wrap;html=1;fillColor=#60a917;strokeColor=#2D7600;fontColor=#ffffff;" parent="uCrCB7scnEf3Y2s6lKGP-1" vertex="1">
                    <mxGeometry x="410" y="280" width="30" height="40" as="geometry"/>
                </mxCell>
                <mxCell id="uCrCB7scnEf3Y2s6lKGP-33" value="" style="html=1;shadow=0;dashed=0;align=center;verticalAlign=middle;shape=mxgraph.arrows2.arrow;dy=0.71;dx=22.49;notch=0;" parent="uCrCB7scnEf3Y2s6lKGP-1" vertex="1">
                    <mxGeometry x="230" y="280" width="85" height="30" as="geometry"/>
                </mxCell>
                <mxCell id="uCrCB7scnEf3Y2s6lKGP-34" value="" style="html=1;shadow=0;dashed=0;align=center;verticalAlign=middle;shape=mxgraph.arrows2.arrow;dy=0.71;dx=22.49;notch=0;" parent="uCrCB7scnEf3Y2s6lKGP-1" vertex="1">
                    <mxGeometry x="275" y="290" width="85" height="30" as="geometry"/>
                </mxCell>
                <mxCell id="uCrCB7scnEf3Y2s6lKGP-35" value="" style="html=1;shadow=0;dashed=0;align=center;verticalAlign=middle;shape=mxgraph.arrows2.arrow;dy=0.71;dx=22.49;notch=0;" parent="uCrCB7scnEf3Y2s6lKGP-1" vertex="1">
                    <mxGeometry x="320" y="300" width="80" height="32.5" as="geometry"/>
                </mxCell>
                <mxCell id="uCrCB7scnEf3Y2s6lKGP-36" value="" style="html=1;shadow=0;dashed=0;align=center;verticalAlign=middle;shape=mxgraph.arrows2.arrow;dy=0.71;dx=22.49;notch=0;" parent="uCrCB7scnEf3Y2s6lKGP-1" vertex="1">
                    <mxGeometry x="355" y="320" width="85" height="30" as="geometry"/>
                </mxCell>
                <mxCell id="uCrCB7scnEf3Y2s6lKGP-39" style="edgeStyle=orthogonalEdgeStyle;rounded=0;orthogonalLoop=1;jettySize=auto;html=1;exitX=0;exitY=0;exitDx=62.510000000000005;exitDy=19.35;exitPerimeter=0;" parent="uCrCB7scnEf3Y2s6lKGP-1" source="uCrCB7scnEf3Y2s6lKGP-37" edge="1">
                    <mxGeometry relative="1" as="geometry">
                        <mxPoint x="457.20000000000005" y="380" as="targetPoint"/>
                    </mxGeometry>
                </mxCell>
                <mxCell id="uCrCB7scnEf3Y2s6lKGP-43" style="edgeStyle=orthogonalEdgeStyle;rounded=0;orthogonalLoop=1;jettySize=auto;html=1;exitX=0;exitY=0;exitDx=31.255000000000003;exitDy=10.649999999999999;exitPerimeter=0;" parent="uCrCB7scnEf3Y2s6lKGP-1" source="uCrCB7scnEf3Y2s6lKGP-37" edge="1">
                    <mxGeometry relative="1" as="geometry">
                        <mxPoint x="430" y="370" as="targetPoint"/>
                    </mxGeometry>
                </mxCell>
                <mxCell id="uCrCB7scnEf3Y2s6lKGP-37" value="" style="html=1;shadow=0;dashed=0;align=center;verticalAlign=middle;shape=mxgraph.arrows2.arrow;dy=0.71;dx=22.49;notch=0;" parent="uCrCB7scnEf3Y2s6lKGP-1" vertex="1">
                    <mxGeometry x="395" y="337" width="85" height="30" as="geometry"/>
                </mxCell>
                <mxCell id="uCrCB7scnEf3Y2s6lKGP-38" value="" style="html=1;shadow=0;dashed=0;align=center;verticalAlign=middle;shape=mxgraph.arrows2.arrow;dy=0.71;dx=22.49;notch=0;rotation=-181;" parent="uCrCB7scnEf3Y2s6lKGP-1" vertex="1">
                    <mxGeometry x="395" y="150" width="85" height="30" as="geometry"/>
                </mxCell>
                <mxCell id="uCrCB7scnEf3Y2s6lKGP-42" style="edgeStyle=orthogonalEdgeStyle;rounded=0;orthogonalLoop=1;jettySize=auto;html=1;exitX=0;exitY=0;exitDx=62.510000000000005;exitDy=10.649999999999999;exitPerimeter=0;entryX=0.861;entryY=0.821;entryDx=0;entryDy=0;entryPerimeter=0;" parent="uCrCB7scnEf3Y2s6lKGP-1" source="uCrCB7scnEf3Y2s6lKGP-37" target="uCrCB7scnEf3Y2s6lKGP-37" edge="1">
                    <mxGeometry relative="1" as="geometry"/>
                </mxCell>
            </root>
        </mxGraphModel>
    </diagram>
</mxfile>